<svg width="107" height="27" viewBox="0 0 107 27" fill="none" xmlns="http://www.w3.org/2000/svg">
<g opacity="0.8">
<path d="M1.125 21.375V5.625H3.375V21.375H1.125ZM4.5 21.375V5.625H6.75V21.375H4.5ZM7.875 21.375V5.625H9V21.375H7.875ZM11.25 21.375V5.625H13.5V21.375H11.25ZM14.625 21.375V5.625H18V21.375H14.625ZM19.125 21.375V5.625H20.25V21.375H19.125ZM22.5 21.375V5.625H25.875V21.375H22.5Z" fill="#333333"/>
<path d="M27 21.375V5.625H29.25V21.375H27ZM30.375 21.375V5.625H32.625V21.375H30.375ZM33.75 21.375V5.625H34.875V21.375H33.75ZM37.125 21.375V5.625H39.375V21.375H37.125ZM40.5 21.375V5.625H43.875V21.375H40.5ZM45 21.375V5.625H46.125V21.375H45ZM48.375 21.375V5.625H51.75V21.375H48.375Z" fill="#333333"/>
<path d="M54 21.375V5.625H56.25V21.375H54ZM57.375 21.375V5.625H59.625V21.375H57.375ZM60.75 21.375V5.625H61.875V21.375H60.75ZM64.125 21.375V5.625H66.375V21.375H64.125ZM67.5 21.375V5.625H70.875V21.375H67.5ZM72 21.375V5.625H73.125V21.375H72ZM75.375 21.375V5.625H78.75V21.375H75.375Z" fill="#333333"/>
<path d="M81 21.375V5.625H83.25V21.375H81ZM84.375 21.375V5.625H86.625V21.375H84.375ZM87.75 21.375V5.625H88.875V21.375H87.75ZM91.125 21.375V5.625H93.375V21.375H91.125ZM94.5 21.375V5.625H97.875V21.375H94.5ZM99 21.375V5.625H100.125V21.375H99ZM102.375 21.375V5.625H105.75V21.375H102.375Z" fill="#333333"/>
</g>
</svg>
