<svg width="502" height="650" viewBox="0 0 502 650" fill="none" xmlns="http://www.w3.org/2000/svg">
<path d="M74.7582 200.191C75.6389 208.995 79.3905 217.959 81.7181 226.428C88.7452 251.998 94.4574 277.877 102.598 303.138C106.575 315.478 110.474 328.101 115.692 339.989C118.774 347.01 123.635 357.646 132.089 359.505C152.066 363.898 151.189 316.762 151.73 307.147C153.818 270.038 154.236 231.517 148.014 194.766C143.49 168.04 135.138 135.81 117.167 114.578C98.871 92.9639 82.7144 120.012 74.7582 136.866C56.6745 175.172 48.6391 216.917 50.8113 259.152C51.6178 274.834 53.6603 291.409 60.5434 305.732C64.7206 314.424 73.5633 325.272 84.3723 324.718C94.1625 324.216 102.924 314.617 108.496 307.501C121.446 290.964 130.427 270.905 138.577 251.723C156.811 208.811 166.599 162.435 172.846 116.406C175.106 99.7581 177.229 83.0687 176.562 66.2297C176.251 58.3903 175.423 48.8531 171.371 41.8786C165.233 31.3111 163.947 63.1386 163.94 64.8146C163.753 104.835 167.191 143.667 173.613 183.21C184.243 248.67 197.978 313.868 211.244 378.844C219.375 418.673 225.928 458.805 235.072 498.418" stroke="#333333" stroke-width="19.0519" stroke-linecap="round"/>
<path d="M181.988 243.704C181.647 247.118 177.209 254.881 176.739 247.124C175.499 226.673 176.575 203.578 184.23 184.448C186.229 179.452 191.133 167.652 198.15 167.762C204.775 167.865 208.169 177.33 209.533 182.443C215.812 205.982 207.304 233.954 195.731 254.612C191.396 262.351 177.599 284.001 165.178 277.017C159.264 273.692 169.305 265.287 173.023 264.989C182.649 264.219 193.14 274.328 201.806 277.725C215.368 283.041 228.455 287.693 240.263 276.546C250.539 266.844 252.124 252.334 250.762 238.869C250.504 236.317 244.333 223.244 241.679 231.204C239.042 239.11 243.249 251.673 244.628 259.506C247.308 274.733 250.352 291.611 260.789 303.727C270.233 314.69 280.047 312.157 284.5 298.42C291.483 276.881 289.204 249.054 284.972 227.313C283.102 217.71 278.451 177.866 260.081 183.917C250.196 187.174 245.753 198.939 243.684 208.15C238.966 229.16 240.733 251.062 241.443 272.359" stroke="#333333" stroke-width="19.0519" stroke-linecap="round"/>
<path d="M326.377 194.884C326.149 193.061 323.611 190.144 322.662 188.457C320.03 183.781 318.444 177.184 313.637 174.247C309.436 171.681 304.149 175.855 301.487 179.2C295.175 187.133 293.995 198.95 292.404 208.681C290.184 222.256 290.483 235.412 291.932 249.07C293.512 263.962 293.839 282.509 302.018 295.591C308.315 305.663 317.493 301.03 324.254 294.175C335.905 282.362 337.662 263.51 335.933 247.95" stroke="#333333" stroke-width="19.0519" stroke-linecap="round"/>
<path d="M332.747 114.225C330.912 132.566 331.456 151.394 332.983 169.884C337.994 230.573 348.466 290.414 355.043 350.897" stroke="#333333" stroke-width="19.0519" stroke-linecap="round"/>
<path d="M375.215 111.041C374.673 110.567 376.123 138.862 376.277 141.229C380.47 205.736 383.784 269.749 392.202 333.916" stroke="#333333" stroke-width="19.0519" stroke-linecap="round"/>
<path d="M335.932 218.232C334.102 220.062 332.42 220.731 331.155 223.008C329.321 226.307 340.248 223.803 341.477 223.539C351.551 221.372 361.829 220.075 371.853 217.702C374.349 217.111 381.282 213.532 380.523 215.048" stroke="#333333" stroke-width="19.0519" stroke-linecap="round"/>
<path d="M416.62 270.237C416.399 268.469 414.896 267.645 414.438 269.706C413.916 272.056 413.687 274.147 415.087 276.546C417.478 280.644 421.89 268.932 418.213 265.992C412.591 261.496 412.563 273.412 414.497 276.369C420.615 285.722 420.203 264.801 417.682 272.36" stroke="#333333" stroke-width="19.0519" stroke-linecap="round"/>
<path d="M110.855 571.649C112.972 571.384 113.05 567.588 113.628 566.048C119.274 550.996 124.812 535.903 130.379 520.824C138.385 499.136 144.308 476.14 148.84 453.49C153.742 428.988 158.819 403.344 160.519 378.373C160.717 375.461 163.213 354.458 160.224 352.665C158.862 351.849 160.645 373.924 160.814 374.894C165.476 401.694 168.639 428.171 176.326 454.433C194.808 517.582 218.586 578.774 243.566 639.573" stroke="#333333" stroke-width="19.0519" stroke-linecap="round"/>
<path d="M237.196 541.932C236.838 544.793 235.907 540.053 235.603 539.81C234.471 538.904 233.89 534.473 233.421 533.206C230.331 524.847 229.221 515.713 227.7 506.968C224.985 491.366 218.673 468.395 227.641 453.726C235.959 440.118 254.234 451.034 261.615 459.15" stroke="#333333" stroke-width="19.0519" stroke-linecap="round"/>
<path d="M65.203 394.41C78.372 407.574 90.8908 421.297 105.547 432.853C135.863 456.756 171.953 465.594 210.359 465.223C263.825 464.706 316.616 448.26 361.531 419.528C409.579 388.791 453.578 340.364 467.05 283.798C479.559 231.279 471.087 173.153 446.878 125.132C416.54 64.9501 354.62 24.2766 288.629 13.2819C212.821 0.651843 127.22 24.7696 73.2246 80.5572C6.42109 149.578 -1.24442 249.215 21.6739 338.161" stroke="#333333" stroke-width="19.0519" stroke-linecap="round"/>
<path d="M283.91 370C278.463 370.68 281.668 410.814 281.55 414.693C280.799 439.38 280.959 463.509 284.382 488.041C287.702 511.842 292.866 535.386 297.712 558.913" stroke="#333333" stroke-width="19.0519" stroke-linecap="round"/>
<path d="M432.546 64.3428C452.438 82.0184 459.793 103.997 467.581 129.083" stroke="#333333" stroke-width="19.0519" stroke-linecap="round"/>
<path d="M483.507 104.673C483.833 107.937 485.904 111.403 486.751 114.578C490.204 127.522 491.26 140.18 492 153.493" stroke="#333333" stroke-width="19.0519" stroke-linecap="round"/>
</svg>
