<svg width="53" height="69" viewBox="0 0 53 69" fill="none" xmlns="http://www.w3.org/2000/svg">
<path d="M7.79808 20.9655C7.89053 21.8898 8.28436 22.8308 8.5287 23.7199C9.26638 26.4041 9.86603 29.1208 10.7206 31.7725C11.1381 33.068 11.5474 34.3931 12.0952 35.641C12.4187 36.3781 12.929 37.4946 13.8165 37.6898C15.9136 38.151 15.8215 33.2028 15.8783 32.1934C16.0975 28.2979 16.1414 24.2541 15.4883 20.3961C15.0133 17.5905 14.1366 14.2071 12.25 11.9783C10.3294 9.70926 8.6333 12.5487 7.79808 14.3179C5.89972 18.3392 5.05619 22.7215 5.28422 27.1551C5.36888 28.8013 5.58329 30.5413 6.30586 32.0449C6.74436 32.9574 7.67264 34.0961 8.80733 34.0379C9.83507 33.9853 10.7548 32.9776 11.3398 32.2306C12.6992 30.4946 13.642 28.3889 14.4976 26.3752C16.4117 21.8705 17.4392 17.0021 18.095 12.1701C18.3322 10.4225 18.5551 8.6705 18.4851 6.9028C18.4525 6.07984 18.3655 5.07866 17.9402 4.3465C17.2958 3.23717 17.1609 6.57831 17.16 6.75425C17.1405 10.9554 17.5014 15.0319 18.1755 19.1829C19.2914 26.0548 20.7333 32.899 22.1258 39.72C22.9794 43.9011 23.6673 48.114 24.6273 52.2724" stroke="#333333" stroke-width="2" stroke-linecap="round"/>
<path d="M19.0547 25.5334C19.0189 25.8918 18.553 26.7067 18.5036 25.8924C18.3735 23.7455 18.4864 21.3212 19.29 19.3129C19.4998 18.7885 20.0147 17.5497 20.7512 17.5612C21.4467 17.5721 21.8031 18.5657 21.9463 19.1024C22.6054 21.5735 21.7122 24.5099 20.4974 26.6785C20.0422 27.4909 18.5939 29.7637 17.29 29.0305C16.6692 28.6814 17.7232 27.7991 18.1136 27.7679C19.1241 27.687 20.2254 28.7482 21.1351 29.1048C22.5588 29.6629 23.9327 30.1513 25.1722 28.981C26.2509 27.9626 26.4173 26.4394 26.2743 25.0259C26.2472 24.758 25.5994 23.3856 25.3208 24.2212C25.044 25.0511 25.4856 26.3699 25.6304 27.1922C25.9117 28.7907 26.2313 30.5625 27.3269 31.8344C28.3183 32.9853 29.3485 32.7193 29.816 31.2774C30.549 29.0162 30.3098 26.095 29.8655 23.8127C29.6693 22.8047 29.181 18.6219 27.2526 19.2572C26.2149 19.599 25.7485 20.8341 25.5313 21.8011C25.036 24.0066 25.2215 26.3058 25.296 28.5416" stroke="#333333" stroke-width="2" stroke-linecap="round"/>
<path d="M34.2122 20.4085C34.1882 20.2171 33.9217 19.9109 33.8221 19.7338C33.5458 19.2429 33.3793 18.5504 32.8748 18.2421C32.4338 17.9727 31.8787 18.4109 31.5992 18.762C30.9366 19.5948 30.8128 20.8353 30.6457 21.8568C30.4127 23.2819 30.4441 24.663 30.5962 26.0967C30.7621 27.6601 30.7964 29.6071 31.655 30.9803C32.3161 32.0377 33.2796 31.5513 33.9893 30.8317C35.2124 29.5916 35.3968 27.6126 35.2152 25.9791" stroke="#333333" stroke-width="2" stroke-linecap="round"/>
<path d="M34.8809 11.9411C34.6882 13.8665 34.7453 15.843 34.9056 17.7841C35.4317 24.1549 36.531 30.4369 37.2213 36.7861" stroke="#333333" stroke-width="2" stroke-linecap="round"/>
<path d="M39.3389 11.6069C39.2821 11.5572 39.4342 14.5275 39.4504 14.7759C39.8906 21.5477 40.2385 28.2675 41.1222 35.0035" stroke="#333333" stroke-width="2" stroke-linecap="round"/>
<path d="M35.2152 22.8595C35.023 23.0516 34.8465 23.1218 34.7137 23.3609C34.5212 23.7072 35.6683 23.4443 35.7972 23.4166C36.8547 23.1891 37.9337 23.0529 38.986 22.8038C39.248 22.7417 39.9758 22.3661 39.8962 22.5253" stroke="#333333" stroke-width="2" stroke-linecap="round"/>
<path d="M43.6856 28.3187C43.6623 28.1331 43.5046 28.0467 43.4565 28.263C43.4016 28.5097 43.3776 28.7292 43.5246 28.981C43.7756 29.4112 44.2387 28.1818 43.8527 27.8731C43.2626 27.4011 43.2596 28.652 43.4627 28.9625C44.1048 29.9443 44.0616 27.7481 43.797 28.5416" stroke="#333333" stroke-width="2" stroke-linecap="round"/>
<path d="M11.5875 59.9599C11.8096 59.9322 11.8178 59.5337 11.8785 59.3719C12.4712 57.7918 13.0526 56.2074 13.6369 54.6245C14.4775 52.3478 15.0992 49.9337 15.575 47.556C16.0896 44.9838 16.6225 42.2919 16.8009 39.6705C16.8217 39.3648 17.0837 37.16 16.77 36.9718C16.627 36.8861 16.8142 39.2034 16.8319 39.3053C17.3213 42.1186 17.6534 44.8981 18.4603 47.655C20.4005 54.2842 22.8967 60.7079 25.5189 67.0903" stroke="#333333" stroke-width="2" stroke-linecap="round"/>
<path d="M24.8502 56.8404C24.8127 57.1407 24.7149 56.643 24.6831 56.6175C24.5642 56.5225 24.5032 56.0574 24.454 55.9243C24.1296 55.0468 24.0131 54.088 23.8534 53.1699C23.5684 51.5321 22.9058 49.1207 23.8472 47.5808C24.7204 46.1523 26.6388 47.2982 27.4136 48.1502" stroke="#333333" stroke-width="2" stroke-linecap="round"/>
<path d="M6.79501 41.354C8.17745 42.7359 9.49163 44.1765 11.0302 45.3896C14.2126 47.8988 18.0012 48.8266 22.033 48.7877C27.6456 48.7335 33.1874 47.0069 37.9025 43.9908C42.9464 40.7642 47.5652 35.6805 48.9795 29.7423C50.2927 24.2291 49.4032 18.1272 46.862 13.0862C43.6771 6.76847 37.177 2.4987 30.2494 1.34452C22.2915 0.0186636 13.3053 2.55046 7.63709 8.40684C0.624299 15.6524 -0.1804 26.1119 2.22549 35.4491" stroke="#333333" stroke-width="2" stroke-linecap="round"/>
<path d="M29.7541 38.7915C29.1823 38.863 29.5188 43.0761 29.5064 43.4832C29.4275 46.0747 29.4443 48.6077 29.8036 51.1831C30.1522 53.6816 30.6943 56.1532 31.2029 58.6229" stroke="#333333" stroke-width="2" stroke-linecap="round"/>
<path d="M45.3574 6.70471C47.4456 8.56023 48.2177 10.8675 49.0353 13.5009" stroke="#333333" stroke-width="2" stroke-linecap="round"/>
<path d="M50.707 10.9384C50.7413 11.281 50.9587 11.6449 51.0476 11.9782C51.41 13.337 51.521 14.6658 51.5986 16.0633" stroke="#333333" stroke-width="2" stroke-linecap="round"/>
</svg>
