<svg width="48" height="48" viewBox="0 0 48 48" fill="none" xmlns="http://www.w3.org/2000/svg">
<g opacity="0.6">
<circle cx="24" cy="24" r="24" fill="#333333"/>
<path fill-rule="evenodd" clip-rule="evenodd" d="M24.3981 15.6777C25.407 14.6958 26.7619 14.1506 28.1697 14.1601C29.5775 14.1697 30.925 14.7332 31.9204 15.7288C32.9158 16.7244 33.4791 18.0719 33.4885 19.4797C33.4978 20.8875 32.9524 22.2424 31.9703 23.2511L31.9576 23.2626L29.3491 25.8711C28.8062 26.4142 28.1529 26.8342 27.4335 27.1025C26.714 27.3709 25.9452 27.4815 25.1793 27.4266C24.4134 27.3718 23.6682 27.1529 22.9943 26.7847C22.3205 26.4166 21.7336 25.9079 21.2736 25.293C21.191 25.1873 21.1303 25.0662 21.0951 24.9368C21.0599 24.8073 21.0509 24.6721 21.0686 24.5392C21.0863 24.4062 21.1304 24.2781 21.1983 24.1624C21.2662 24.0467 21.3565 23.9457 21.4639 23.8654C21.5713 23.785 21.6937 23.7269 21.8238 23.6945C21.954 23.662 22.0893 23.6559 22.2219 23.6765C22.3545 23.697 22.4816 23.7439 22.5958 23.8142C22.71 23.8845 22.8091 23.9769 22.8871 24.086C23.174 24.4697 23.54 24.7871 23.9604 25.0168C24.3808 25.2465 24.8456 25.3831 25.3235 25.4173C25.8013 25.4515 26.2808 25.3825 26.7296 25.215C27.1784 25.0475 27.5859 24.7854 27.9245 24.4465L30.5261 21.8437C31.133 21.2135 31.4684 20.3703 31.4601 19.4954C31.4518 18.6205 31.1005 17.7838 30.4817 17.1652C29.863 16.5466 29.0262 16.1955 28.1513 16.1874C27.2764 16.1793 26.4332 16.5149 25.8031 17.1219L24.3129 18.6041C24.1219 18.7844 23.868 18.883 23.6054 18.8789C23.3428 18.8747 23.0922 18.7683 22.9069 18.5821C22.7217 18.3959 22.6164 18.1448 22.6136 17.8822C22.6107 17.6195 22.7105 17.3662 22.8917 17.176L24.3981 15.6777ZM20.206 20.5378C21.2902 20.1333 22.4762 20.0908 23.5865 20.4167C24.6968 20.7427 25.6717 21.4195 26.3652 22.3459C26.4446 22.4518 26.5023 22.5724 26.5351 22.7006C26.5679 22.8289 26.5752 22.9624 26.5564 23.0934C26.5376 23.2245 26.4932 23.3506 26.4257 23.4645C26.3582 23.5783 26.269 23.6778 26.163 23.7572C26.0571 23.8366 25.9366 23.8944 25.8083 23.9272C25.68 23.96 25.5466 23.9673 25.4155 23.9485C25.2844 23.9297 25.1584 23.8853 25.0445 23.8178C24.9306 23.7503 24.8311 23.6611 24.7517 23.5551C24.4649 23.1716 24.099 22.8542 23.6787 22.6246C23.2585 22.3949 22.7938 22.2583 22.3162 22.224C21.8385 22.1897 21.359 22.2585 20.9103 22.4258C20.4616 22.5931 20.0541 22.8549 19.7154 23.1935L17.1127 25.7963C16.5115 26.4275 16.181 27.2687 16.1916 28.1403C16.2022 29.0119 16.5532 29.8448 17.1695 30.4612C17.7859 31.0776 18.6188 31.4286 19.4904 31.4392C20.3621 31.4498 21.2033 31.1193 21.8345 30.5181L23.3155 29.0382C23.4091 28.9446 23.5201 28.8703 23.6424 28.8196C23.7646 28.7689 23.8957 28.7428 24.028 28.7428C24.1604 28.7427 24.2914 28.7687 24.4137 28.8193C24.536 28.8699 24.6471 28.9441 24.7407 29.0376C24.8343 29.1312 24.9086 29.2422 24.9593 29.3645C25.01 29.4867 25.0361 29.6178 25.0362 29.7501C25.0362 29.8824 25.0102 30.0135 24.9596 30.1358C24.909 30.2581 24.8348 30.3692 24.7413 30.4628L23.2534 31.9496L23.2418 31.9611C22.2331 32.9433 20.8783 33.4887 19.4705 33.4793C18.0626 33.47 16.7151 32.9066 15.7196 31.9112C14.724 30.9158 14.1604 29.5684 14.1509 28.1605C14.1413 26.7527 14.6865 25.3978 15.6685 24.3889L15.6811 24.3774L18.2897 21.7689C18.8323 21.2256 19.4855 20.8053 20.2049 20.5366" fill="white"/>
</g>
</svg>
